<svg width="14" height="10" viewBox="0 0 14 10" fill="none" xmlns="http://www.w3.org/2000/svg">
<path d="M5.70577 4.51892C5.99358 4.37416 6.21116 4.21292 6.36026 4.03867C6.62553 3.72487 6.75643 3.30877 6.75643 2.79297C6.75643 2.29105 6.62553 1.86195 6.36373 1.5022C5.92683 0.91619 5.18738 0.616251 4.14193 0.600647H0V9.05528H3.86193C4.2971 9.05528 4.7002 9.01801 5.07295 8.94172C5.44571 8.86457 5.76819 8.72327 6.04125 8.51695C6.28398 8.33751 6.48683 8.11472 6.64807 7.85206C6.90293 7.45503 7.03036 7.00512 7.03036 6.50407C7.03036 6.01862 6.91853 5.60512 6.69661 5.2653C6.47209 4.92549 6.14268 4.67669 5.70577 4.51892ZM1.70861 2.06913H3.57413C3.98416 2.06913 4.32224 2.11334 4.5875 2.2009C4.89438 2.32833 5.04782 2.58753 5.04782 2.98282C5.04782 3.33737 4.93079 3.5853 4.69933 3.72487C4.46614 3.86443 4.1636 3.93465 3.79258 3.93465H1.70861V2.06913ZM4.65859 7.43943C4.45227 7.53912 4.16187 7.58853 3.78998 7.58853H1.70861V5.33379H3.81859C4.18614 5.33639 4.47221 5.38493 4.67679 5.47595C5.04088 5.64066 5.22206 5.94233 5.22206 6.38357C5.22206 6.9037 5.03481 7.25391 4.65859 7.43943Z" fill="white"/>
<path d="M12.5359 0.994934H8.86292V2.04732H12.5359V0.994934Z" fill="white"/>
<path d="M13.8119 5.14842C13.7356 4.65863 13.5674 4.22779 13.3056 3.8559C13.0187 3.4346 12.6546 3.126 12.2116 2.93095C11.7704 2.73504 11.2737 2.63708 10.7206 2.63795C9.7922 2.63795 9.03801 2.92835 8.45461 3.50482C7.87293 4.08303 7.58167 4.91436 7.58167 5.99795C7.58167 7.1535 7.90328 7.9883 8.54996 8.50062C9.19405 9.01381 9.93783 9.26954 10.7822 9.26954C11.8042 9.26954 12.5991 8.96527 13.1669 8.35845C13.5302 7.97529 13.7356 7.5982 13.7807 7.22805H12.0885C11.9906 7.41096 11.877 7.55399 11.747 7.65802C11.5112 7.84873 11.2043 7.94409 10.8281 7.94409C10.4701 7.94409 10.1667 7.8652 9.91356 7.7083C9.49572 7.4569 9.27727 7.01653 9.24953 6.38978H13.8674C13.8743 5.84972 13.857 5.43448 13.8119 5.14842ZM9.29114 5.31052C9.35182 4.90396 9.49919 4.58148 9.73325 4.34309C9.9673 4.10556 10.2985 3.98594 10.7224 3.98507C11.1133 3.98507 11.4401 4.0969 11.7063 4.32142C11.9689 4.54767 12.1172 4.87622 12.1475 5.31052H9.29114Z" fill="white"/>
</svg>
