<svg width="40" height="40" viewBox="0 0 40 40" fill="none" xmlns="http://www.w3.org/2000/svg">
<g clip-path="url(#clip0)">
<path d="M18.7058 19.5189C18.9936 19.3742 19.2112 19.2129 19.3603 19.0387C19.6255 18.7249 19.7564 18.3088 19.7564 17.793C19.7564 17.2911 19.6255 16.862 19.3637 16.5022C18.9268 15.9162 18.1874 15.6163 17.1419 15.6006H13V24.0553H16.8619C17.2971 24.0553 17.7002 24.018 18.073 23.9417C18.4457 23.8646 18.7682 23.7233 19.0413 23.517C19.284 23.3375 19.4868 23.1147 19.6481 22.8521C19.9029 22.455 20.0304 22.0051 20.0304 21.5041C20.0304 21.0186 19.9185 20.6051 19.6966 20.2653C19.4721 19.9255 19.1427 19.6767 18.7058 19.5189ZM14.7086 17.0691H16.5741C16.9842 17.0691 17.3222 17.1133 17.5875 17.2009C17.8944 17.3283 18.0478 17.5875 18.0478 17.9828C18.0478 18.3374 17.9308 18.5853 17.6993 18.7249C17.4661 18.8644 17.1636 18.9346 16.7926 18.9346H14.7086V17.0691ZM17.6586 22.4394C17.4523 22.5391 17.1619 22.5885 16.79 22.5885H14.7086V20.3338H16.8186C17.1861 20.3364 17.4722 20.3849 17.6768 20.476C18.0409 20.6407 18.2221 20.9423 18.2221 21.3836C18.2221 21.9037 18.0348 22.2539 17.6586 22.4394Z" fill="white"/>
<path d="M25.5359 15.9949H21.8629V17.0473H25.5359V15.9949Z" fill="white"/>
<path d="M26.8119 20.1484C26.7356 19.6586 26.5674 19.2278 26.3056 18.8559C26.0187 18.4346 25.6546 18.126 25.2116 17.9309C24.7704 17.735 24.2737 17.6371 23.7206 17.6379C22.7922 17.6379 22.038 17.9283 21.4546 18.5048C20.8729 19.083 20.5817 19.9144 20.5817 20.998C20.5817 22.1535 20.9033 22.9883 21.55 23.5006C22.1941 24.0138 22.9378 24.2695 23.7822 24.2695C24.8042 24.2695 25.5991 23.9653 26.1669 23.3585C26.5302 22.9753 26.7356 22.5982 26.7807 22.228H25.0885C24.9906 22.411 24.877 22.554 24.747 22.658C24.5112 22.8487 24.2043 22.9441 23.8281 22.9441C23.4701 22.9441 23.1667 22.8652 22.9136 22.7083C22.4957 22.4569 22.2773 22.0165 22.2495 21.3898H26.8674C26.8743 20.8497 26.857 20.4345 26.8119 20.1484ZM22.2911 20.3105C22.3518 19.904 22.4992 19.5815 22.7332 19.3431C22.9673 19.1056 23.2985 18.9859 23.7224 18.9851C24.1133 18.9851 24.4401 19.0969 24.7063 19.3214C24.9689 19.5477 25.1172 19.8762 25.1475 20.3105H22.2911Z" fill="white"/>
</g>
<circle cx="19.6475" cy="19.6475" r="19.3586" stroke="white" stroke-opacity="0.3" stroke-width="0.577869"/>
<defs>
<clipPath id="clip0">
<rect width="13.8689" height="13.8689" fill="white" transform="translate(13 13.0001)"/>
</clipPath>
</defs>
</svg>
