<svg width="19" height="19" viewBox="0 0 19 19" fill="none" xmlns="http://www.w3.org/2000/svg">
<g clip-path="url(#clip0)">
<path d="M18.331 10.9987C18.8979 6.22733 18.0587 3.21504 16.545 1.85258L16.5458 1.85179C14.1028 -0.474919 5.852 -0.819295 2.92917 1.95629C1.61659 3.314 1.15425 5.30662 1.10359 7.77345C1.05292 10.2411 0.992752 14.8636 5.30021 16.1176H5.30417L5.30021 18.0327C5.30021 18.0327 5.27092 18.8085 5.7665 18.9645C6.33333 19.1481 6.58983 18.7879 8.35288 16.6821C11.301 16.9378 13.5652 16.352 13.8225 16.2665C14.4178 16.067 17.7864 15.6212 18.331 10.9987ZM8.64342 15.3347C8.64342 15.3347 6.77746 17.6614 6.19717 18.2654C6.00717 18.4617 5.79896 18.4435 5.80213 18.054C5.80213 17.7983 5.81638 14.8747 5.81638 14.8747C2.16442 13.8281 2.37975 9.89195 2.41934 7.83283C2.45892 5.77291 2.83575 4.08587 3.94725 2.94983C6.51146 0.545539 13.7449 1.08308 15.5879 2.81525C17.841 4.81262 17.039 10.4556 17.0438 10.648C16.5807 14.5066 13.851 14.7512 13.3491 14.9182C13.1345 14.9895 11.1435 15.5017 8.64342 15.3347Z" fill="white"/>
<path d="M9.67574 3.40167C9.37095 3.40167 9.37095 3.87667 9.67574 3.88063C12.0404 3.89884 13.9879 5.54709 14.0093 8.57047C14.0093 8.88951 14.4764 8.88555 14.4724 8.56651H14.4717C14.4463 5.3088 12.3199 3.41988 9.67574 3.40167Z" fill="white"/>
<path d="M12.7862 8.06955C12.7791 8.38463 13.2454 8.39967 13.2493 8.08063C13.2881 6.28434 12.1806 4.80471 10.0993 4.64876C9.79449 4.62659 9.76283 5.10555 10.0668 5.12771C11.8718 5.26467 12.8226 6.49651 12.7862 8.06955Z" fill="white"/>
<path d="M12.2875 10.1128C11.8964 9.88638 11.4982 10.0273 11.3335 10.2498L10.9891 10.6955C10.8142 10.9219 10.4872 10.8918 10.4872 10.8918C8.10113 10.2608 7.46305 7.76392 7.46305 7.76392C7.46305 7.76392 7.43376 7.42588 7.65226 7.24458L8.08292 6.88833C8.29826 6.71733 8.43442 6.30567 8.21513 5.90112C7.6293 4.84267 7.23584 4.47771 7.03555 4.19746C6.82497 3.93383 6.5083 3.87446 6.17897 4.05258H6.17184C5.48705 4.45317 4.73734 5.20287 4.97721 5.97475C5.38651 6.78858 6.13859 9.38288 8.53576 11.343C9.6623 12.2701 11.4451 13.2201 12.202 13.4394L12.2091 13.4505C12.9548 13.699 13.68 12.92 14.0671 12.2147V12.2091C14.2389 11.8679 14.1819 11.5449 13.931 11.3335C13.4861 10.8997 12.8147 10.4208 12.2875 10.1128Z" fill="white"/>
<path d="M10.4254 6.41562C11.1862 6.45996 11.5551 6.85737 11.5947 7.67358C11.609 7.99262 12.0721 7.97046 12.0579 7.65142C12.0072 6.58583 11.4514 5.99208 10.4508 5.93666C10.146 5.91846 10.1175 6.39741 10.4254 6.41562Z" fill="white"/>
</g>
<defs>
<clipPath id="clip0">
<rect width="19" height="19" fill="white"/>
</clipPath>
</defs>
</svg>
